STARTFONT 2.1
COMMENT  
COMMENT  WARNING:  This bdf file was generated from an X server using
COMMENT  xbdfdump.  The resulting font is subject to the same copyright,
COMMENT  license, and trademark restrictions as the original font.  The
COMMENT  author and distributors of xbdfdump disclaim all liability for
COMMENT  misuse of the program or its output.
COMMENT  
FONT -Phaisarn-PtMule-Medium-R-Normal--20-200-75-75-C-100-TIS620-2
SIZE 20 75 75
FONTBOUNDINGBOX 21 26 -10 -9
STARTPROPERTIES 21
FONTNAME_REGISTRY ""
FOUNDRY "Phaisarn"
FAMILY_NAME "PtMule"
WEIGHT_NAME "Medium"
SLANT "R"
SETWIDTH_NAME "Normal"
ADD_STYLE_NAME ""
PIXEL_SIZE 20
POINT_SIZE 200
RESOLUTION_X 75
RESOLUTION_Y 75
SPACING "C"
AVERAGE_WIDTH 100
CHARSET_REGISTRY "TIS620"
CHARSET_ENCODING "2"
COPYRIGHT "Copyright 1997  Phaisarn Techajaruwong, TITech."
WEIGHT 10
X_HEIGHT 18
QUAD_WIDTH 10
FONT_ASCENT 18
FONT_DESCENT 5
ENDPROPERTIES
CHARS 220
STARTCHAR space
ENCODING 32
SWIDTH 480 0
DWIDTH 10 0
BBX 21 26 -10 -9
BITMAP
000000
000000
000000
000000
000000
000000
000000
000000
000000
000000
000000
000000
000000
000000
000000
000000
000000
000000
000000
000000
000000
000000
000000
000000
000000
000000
ENDCHAR
STARTCHAR exclam
ENCODING 33
SWIDTH 480 0
DWIDTH 10 0
BBX 21 26 -10 -9
BITMAP
000000
000000
000000
000000
000300
000300
000300
000300
000300
000300
000300
000300
000300
000300
000000
000300
000300
000000
000000
000000
000000
000000
000000
000000
000000
000000
ENDCHAR
STARTCHAR quotedbl
ENCODING 34
SWIDTH 480 0
DWIDTH 10 0
BBX 21 26 -10 -9
BITMAP
000000
000000
000000
000000
000cc0
000cc0
000cc0
000480
000000
000000
000000
000000
000000
000000
000000
000000
000000
000000
000000
000000
000000
000000
000000
000000
000000
000000
ENDCHAR
STARTCHAR numbersign
ENCODING 35
SWIDTH 480 0
DWIDTH 10 0
BBX 21 26 -10 -9
BITMAP
000000
000000
000000
000000
000000
000360
000360
000360
000ff0
0006c0
0006c0
0006c0
001fe0
000d80
000d80
000d80
000000
000000
000000
000000
000000
000000
000000
000000
000000
000000
ENDCHAR
STARTCHAR dollar
ENCODING 36
SWIDTH 480 0
DWIDTH 10 0
BBX 21 26 -10 -9
BITMAP
000000
000000
000000
000000
000300
000fc0
001b60
001b00
001b00
001b00
000fc0
000360
000360
000360
001b60
000fc0
000300
000000
000000
000000
000000
000000
000000
000000
000000
000000
ENDCHAR
STARTCHAR percent
ENCODING 37
SWIDTH 480 0
DWIDTH 10 0
BBX 21 26 -10 -9
BITMAP
000000
000000
000000
000000
000000
000e60
001b60
001bc0
000ec0
000180
000180
000300
000300
0006e0
0007b0
000db0
000ce0
000000
000000
000000
000000
000000
000000
000000
000000
000000
ENDCHAR
STARTCHAR ampersand
ENCODING 38
SWIDTH 480 0
DWIDTH 10 0
BBX 21 26 -10 -9
BITMAP
000000
000000
000000
000000
000700
000d80
000d80
000d80
000f00
000600
000e00
001b00
0019b0
0018e0
0018c0
001de0
000f30
000000
000000
000000
000000
000000
000000
000000
000000
000000
ENDCHAR
STARTCHAR apostrophe
ENCODING 39
SWIDTH 480 0
DWIDTH 10 0
BBX 21 26 -10 -9
BITMAP
000000
000000
000000
000000
0003c0
000380
000600
000000
000000
000000
000000
000000
000000
000000
000000
000000
000000
000000
000000
000000
000000
000000
000000
000000
000000
000000
ENDCHAR
STARTCHAR parenleft
ENCODING 40
SWIDTH 480 0
DWIDTH 10 0
BBX 21 26 -10 -9
BITMAP
000000
000000
000000
000000
0000c0
000180
000300
000300
000600
000600
000600
000600
000600
000300
000300
000180
0000c0
000000
000000
000000
000000
000000
000000
000000
000000
000000
ENDCHAR
STARTCHAR parenright
ENCODING 41
SWIDTH 480 0
DWIDTH 10 0
BBX 21 26 -10 -9
BITMAP
000000
000000
000000
000000
000c00
000600
000300
000300
000180
000180
000180
000180
000180
000300
000300
000600
000c00
000000
000000
000000
000000
000000
000000
000000
000000
000000
ENDCHAR
STARTCHAR asterisk
ENCODING 42
SWIDTH 480 0
DWIDTH 10 0
BBX 21 26 -10 -9
BITMAP
000000
000000
000000
000000
000000
000000
000000
000cc0
000cc0
000780
001fe0
000780
000cc0
000cc0
000000
000000
000000
000000
000000
000000
000000
000000
000000
000000
000000
000000
ENDCHAR
STARTCHAR plus
ENCODING 43
SWIDTH 480 0
DWIDTH 10 0
BBX 21 26 -10 -9
BITMAP
000000
000000
000000
000000
000000
000000
000000
000300
000300
000300
001fe0
000300
000300
000300
000000
000000
000000
000000
000000
000000
000000
000000
000000
000000
000000
000000
ENDCHAR
STARTCHAR comma
ENCODING 44
SWIDTH 480 0
DWIDTH 10 0
BBX 21 26 -10 -9
BITMAP
000000
000000
000000
000000
000000
000000
000000
000000
000000
000000
000000
000000
000000
000000
000000
000380
000380
000600
000000
000000
000000
000000
000000
000000
000000
000000
ENDCHAR
STARTCHAR minus
ENCODING 45
SWIDTH 480 0
DWIDTH 10 0
BBX 21 26 -10 -9
BITMAP
000000
000000
000000
000000
000000
000000
000000
000000
000000
000000
001fe0
000000
000000
000000
000000
000000
000000
000000
000000
000000
000000
000000
000000
000000
000000
000000
ENDCHAR
STARTCHAR period
ENCODING 46
SWIDTH 480 0
DWIDTH 10 0
BBX 21 26 -10 -9
BITMAP
000000
000000
000000
000000
000000
000000
000000
000000
000000
000000
000000
000000
000000
000000
000380
000380
000380
000000
000000
000000
000000
000000
000000
000000
000000
000000
ENDCHAR
STARTCHAR slash
ENCODING 47
SWIDTH 480 0
DWIDTH 10 0
BBX 21 26 -10 -9
BITMAP
000000
000000
000000
000000
000000
000060
000060
0000c0
0000c0
000180
000180
000300
000300
000600
000600
000c00
000c00
000000
000000
000000
000000
000000
000000
000000
000000
000000
ENDCHAR
STARTCHAR 0
ENCODING 48
SWIDTH 480 0
DWIDTH 10 0
BBX 21 26 -10 -9
BITMAP
000000
000000
000000
000000
000300
000780
000cc0
000cc0
001860
001860
001860
001860
001860
000cc0
000cc0
000780
000300
000000
000000
000000
000000
000000
000000
000000
000000
000000
ENDCHAR
STARTCHAR 1
ENCODING 49
SWIDTH 480 0
DWIDTH 10 0
BBX 21 26 -10 -9
BITMAP
000000
000000
000000
000000
000300
000700
000f00
001b00
000300
000300
000300
000300
000300
000300
000300
000300
001fe0
000000
000000
000000
000000
000000
000000
000000
000000
000000
ENDCHAR
STARTCHAR 2
ENCODING 50
SWIDTH 480 0
DWIDTH 10 0
BBX 21 26 -10 -9
BITMAP
000000
000000
000000
000000
000780
000cc0
001860
001860
000060
000060
0000c0
000380
000600
000c00
001800
001800
001fe0
000000
000000
000000
000000
000000
000000
000000
000000
000000
ENDCHAR
STARTCHAR 3
ENCODING 51
SWIDTH 480 0
DWIDTH 10 0
BBX 21 26 -10 -9
BITMAP
000000
000000
000000
000000
000780
000cc0
001860
001860
000060
0000c0
000380
0000c0
000060
001860
001860
000cc0
000780
000000
000000
000000
000000
000000
000000
000000
000000
000000
ENDCHAR
STARTCHAR 4
ENCODING 52
SWIDTH 480 0
DWIDTH 10 0
BBX 21 26 -10 -9
BITMAP
000000
000000
000000
000000
000040
0000c0
0001c0
0003c0
0006c0
000cc0
0018c0
0018c0
001fe0
0000c0
0000c0
0000c0
0000c0
000000
000000
000000
000000
000000
000000
000000
000000
000000
ENDCHAR
STARTCHAR 5
ENCODING 53
SWIDTH 480 0
DWIDTH 10 0
BBX 21 26 -10 -9
BITMAP
000000
000000
000000
000000
001fe0
001800
001800
001800
001800
001b80
001cc0
000060
000060
000060
001860
000cc0
000780
000000
000000
000000
000000
000000
000000
000000
000000
000000
ENDCHAR
STARTCHAR 6
ENCODING 54
SWIDTH 480 0
DWIDTH 10 0
BBX 21 26 -10 -9
BITMAP
000000
000000
000000
000000
000780
000cc0
001840
001800
001800
001b80
001cc0
001860
001860
001860
001860
000cc0
000780
000000
000000
000000
000000
000000
000000
000000
000000
000000
ENDCHAR
STARTCHAR 7
ENCODING 55
SWIDTH 480 0
DWIDTH 10 0
BBX 21 26 -10 -9
BITMAP
000000
000000
000000
000000
001fe0
000060
000060
0000c0
0000c0
000180
000180
000300
000300
000600
000600
000c00
000c00
000000
000000
000000
000000
000000
000000
000000
000000
000000
ENDCHAR
STARTCHAR 8
ENCODING 56
SWIDTH 480 0
DWIDTH 10 0
BBX 21 26 -10 -9
BITMAP
000000
000000
000000
000000
000780
000cc0
001860
001860
001860
000cc0
000780
000cc0
001860
001860
001860
000cc0
000780
000000
000000
000000
000000
000000
000000
000000
000000
000000
ENDCHAR
STARTCHAR 9
ENCODING 57
SWIDTH 480 0
DWIDTH 10 0
BBX 21 26 -10 -9
BITMAP
000000
000000
000000
000000
000780
000cc0
001860
001860
001860
001860
000ce0
000760
000060
000060
000860
000cc0
000780
000000
000000
000000
000000
000000
000000
000000
000000
000000
ENDCHAR
STARTCHAR colon
ENCODING 58
SWIDTH 480 0
DWIDTH 10 0
BBX 21 26 -10 -9
BITMAP
000000
000000
000000
000000
000000
000000
000000
000380
000380
000000
000000
000000
000000
000380
000380
000000
000000
000000
000000
000000
000000
000000
000000
000000
000000
000000
ENDCHAR
STARTCHAR semicolon
ENCODING 59
SWIDTH 480 0
DWIDTH 10 0
BBX 21 26 -10 -9
BITMAP
000000
000000
000000
000000
000000
000000
000000
000380
000380
000000
000000
000000
000000
000380
000380
000700
000000
000000
000000
000000
000000
000000
000000
000000
000000
000000
ENDCHAR
STARTCHAR less
ENCODING 60
SWIDTH 480 0
DWIDTH 10 0
BBX 21 26 -10 -9
BITMAP
000000
000000
000000
000000
000040
0000c0
000180
000300
000600
000c00
001800
000c00
000600
000300
000180
0000c0
000040
000000
000000
000000
000000
000000
000000
000000
000000
000000
ENDCHAR
STARTCHAR equal
ENCODING 61
SWIDTH 480 0
DWIDTH 10 0
BBX 21 26 -10 -9
BITMAP
000000
000000
000000
000000
000000
000000
000000
000000
001fe0
000000
000000
000000
000000
001fe0
000000
000000
000000
000000
000000
000000
000000
000000
000000
000000
000000
000000
ENDCHAR
STARTCHAR greater
ENCODING 62
SWIDTH 480 0
DWIDTH 10 0
BBX 21 26 -10 -9
BITMAP
000000
000000
000000
000000
000800
000c00
000600
000300
000180
0000c0
000060
0000c0
000180
000300
000600
000c00
000800
000000
000000
000000
000000
000000
000000
000000
000000
000000
ENDCHAR
STARTCHAR question
ENCODING 63
SWIDTH 480 0
DWIDTH 10 0
BBX 21 26 -10 -9
BITMAP
000000
000000
000000
000000
000780
000cc0
001860
001860
001860
0000c0
000180
000300
000300
000300
000000
000300
000300
000000
000000
000000
000000
000000
000000
000000
000000
000000
ENDCHAR
STARTCHAR at
ENCODING 64
SWIDTH 480 0
DWIDTH 10 0
BBX 21 26 -10 -9
BITMAP
000000
000000
000000
000000
000780
000cc0
001860
0019e0
001be0
001b60
001b60
001b60
001bc0
001980
001800
000c60
0007c0
000000
000000
000000
000000
000000
000000
000000
000000
000000
ENDCHAR
STARTCHAR A
ENCODING 65
SWIDTH 480 0
DWIDTH 10 0
BBX 21 26 -10 -9
BITMAP
000000
000000
000000
000000
000300
000780
000cc0
000cc0
001860
001860
001860
001fe0
001860
001860
001860
001860
001860
000000
000000
000000
000000
000000
000000
000000
000000
000000
ENDCHAR
STARTCHAR B
ENCODING 66
SWIDTH 480 0
DWIDTH 10 0
BBX 21 26 -10 -9
BITMAP
000000
000000
000000
000000
001f00
001980
0018c0
0018c0
0018c0
001980
001f80
0018c0
001860
001860
001860
0018c0
001f80
000000
000000
000000
000000
000000
000000
000000
000000
000000
ENDCHAR
STARTCHAR C
ENCODING 67
SWIDTH 480 0
DWIDTH 10 0
BBX 21 26 -10 -9
BITMAP
000000
000000
000000
000000
000780
000cc0
001860
001800
001800
001800
001800
001800
001800
001800
001860
000cc0
000780
000000
000000
000000
000000
000000
000000
000000
000000
000000
ENDCHAR
STARTCHAR D
ENCODING 68
SWIDTH 480 0
DWIDTH 10 0
BBX 21 26 -10 -9
BITMAP
000000
000000
000000
000000
001f80
0018c0
001860
001860
001860
001860
001860
001860
001860
001860
001860
0018c0
001f80
000000
000000
000000
000000
000000
000000
000000
000000
000000
ENDCHAR
STARTCHAR E
ENCODING 69
SWIDTH 480 0
DWIDTH 10 0
BBX 21 26 -10 -9
BITMAP
000000
000000
000000
000000
001fe0
001800
001800
001800
001800
001800
001f80
001800
001800
001800
001800
001800
001fe0
000000
000000
000000
000000
000000
000000
000000
000000
000000
ENDCHAR
STARTCHAR F
ENCODING 70
SWIDTH 480 0
DWIDTH 10 0
BBX 21 26 -10 -9
BITMAP
000000
000000
000000
000000
001fe0
001800
001800
001800
001800
001800
001f80
001800
001800
001800
001800
001800
001800
000000
000000
000000
000000
000000
000000
000000
000000
000000
ENDCHAR
STARTCHAR G
ENCODING 71
SWIDTH 480 0
DWIDTH 10 0
BBX 21 26 -10 -9
BITMAP
000000
000000
000000
000000
000780
000cc0
001860
001800
001800
001800
0019e0
001860
001860
001860
001860
000ce0
0007a0
000000
000000
000000
000000
000000
000000
000000
000000
000000
ENDCHAR
STARTCHAR H
ENCODING 72
SWIDTH 480 0
DWIDTH 10 0
BBX 21 26 -10 -9
BITMAP
000000
000000
000000
000000
001860
001860
001860
001860
001860
001860
001fe0
001860
001860
001860
001860
001860
001860
000000
000000
000000
000000
000000
000000
000000
000000
000000
ENDCHAR
STARTCHAR I
ENCODING 73
SWIDTH 480 0
DWIDTH 10 0
BBX 21 26 -10 -9
BITMAP
000000
000000
000000
000000
001fe0
000300
000300
000300
000300
000300
000300
000300
000300
000300
000300
000300
001fe0
000000
000000
000000
000000
000000
000000
000000
000000
000000
ENDCHAR
STARTCHAR J
ENCODING 74
SWIDTH 480 0
DWIDTH 10 0
BBX 21 26 -10 -9
BITMAP
000000
000000
000000
000000
0003e0
000060
000060
000060
000060
000060
000060
000060
000060
001860
001860
000cc0
000780
000000
000000
000000
000000
000000
000000
000000
000000
000000
ENDCHAR
STARTCHAR K
ENCODING 75
SWIDTH 480 0
DWIDTH 10 0
BBX 21 26 -10 -9
BITMAP
000000
000000
000000
000000
001860
001860
0018c0
0018c0
001980
001980
001f00
001980
001980
0018c0
0018c0
001860
001860
000000
000000
000000
000000
000000
000000
000000
000000
000000
ENDCHAR
STARTCHAR L
ENCODING 76
SWIDTH 480 0
DWIDTH 10 0
BBX 21 26 -10 -9
BITMAP
000000
000000
000000
000000
001800
001800
001800
001800
001800
001800
001800
001800
001800
001800
001800
001800
001fe0
000000
000000
000000
000000
000000
000000
000000
000000
000000
ENDCHAR
STARTCHAR M
ENCODING 77
SWIDTH 480 0
DWIDTH 10 0
BBX 21 26 -10 -9
BITMAP
000000
000000
000000
000000
001860
001860
001ce0
001ce0
001fe0
001b60
001b60
001b60
001b60
001860
001860
001860
001860
000000
000000
000000
000000
000000
000000
000000
000000
000000
ENDCHAR
STARTCHAR N
ENCODING 78
SWIDTH 480 0
DWIDTH 10 0
BBX 21 26 -10 -9
BITMAP
000000
000000
000000
000000
001860
001c60
001c60
001e60
001e60
001b60
001b60
0019e0
0019e0
0018e0
0018e0
001860
001860
000000
000000
000000
000000
000000
000000
000000
000000
000000
ENDCHAR
STARTCHAR O
ENCODING 79
SWIDTH 480 0
DWIDTH 10 0
BBX 21 26 -10 -9
BITMAP
000000
000000
000000
000000
000780
000cc0
001860
001860
001860
001860
001860
001860
001860
001860
001860
000cc0
000780
000000
000000
000000
000000
000000
000000
000000
000000
000000
ENDCHAR
STARTCHAR P
ENCODING 80
SWIDTH 480 0
DWIDTH 10 0
BBX 21 26 -10 -9
BITMAP
000000
000000
000000
000000
001f80
0018c0
001860
001860
001860
001860
0018c0
001f80
001800
001800
001800
001800
001800
000000
000000
000000
000000
000000
000000
000000
000000
000000
ENDCHAR
STARTCHAR Q
ENCODING 81
SWIDTH 480 0
DWIDTH 10 0
BBX 21 26 -10 -9
BITMAP
000000
000000
000000
000000
000780
000cc0
001860
001860
001860
001860
001860
001860
001860
001b60
0019e0
000cc0
0007c0
000060
000000
000000
000000
000000
000000
000000
000000
000000
ENDCHAR
STARTCHAR R
ENCODING 82
SWIDTH 480 0
DWIDTH 10 0
BBX 21 26 -10 -9
BITMAP
000000
000000
000000
000000
001f80
0018c0
001860
001860
001860
001860
0018c0
001f80
001980
0018c0
0018c0
001860
001860
000000
000000
000000
000000
000000
000000
000000
000000
000000
ENDCHAR
STARTCHAR S
ENCODING 83
SWIDTH 480 0
DWIDTH 10 0
BBX 21 26 -10 -9
BITMAP
000000
000000
000000
000000
000780
000cc0
001860
001800
001800
000c00
000780
0000c0
000060
000060
001860
000cc0
000780
000000
000000
000000
000000
000000
000000
000000
000000
000000
ENDCHAR
STARTCHAR T
ENCODING 84
SWIDTH 480 0
DWIDTH 10 0
BBX 21 26 -10 -9
BITMAP
000000
000000
000000
000000
001fe0
000300
000300
000300
000300
000300
000300
000300
000300
000300
000300
000300
000300
000000
000000
000000
000000
000000
000000
000000
000000
000000
ENDCHAR
STARTCHAR U
ENCODING 85
SWIDTH 480 0
DWIDTH 10 0
BBX 21 26 -10 -9
BITMAP
000000
000000
000000
000000
001860
001860
001860
001860
001860
001860
001860
001860
001860
001860
001860
000cc0
000780
000000
000000
000000
000000
000000
000000
000000
000000
000000
ENDCHAR
STARTCHAR V
ENCODING 86
SWIDTH 480 0
DWIDTH 10 0
BBX 21 26 -10 -9
BITMAP
000000
000000
000000
000000
001860
001860
001860
001860
000cc0
000cc0
000cc0
000780
000780
000780
000300
000300
000300
000000
000000
000000
000000
000000
000000
000000
000000
000000
ENDCHAR
STARTCHAR W
ENCODING 87
SWIDTH 480 0
DWIDTH 10 0
BBX 21 26 -10 -9
BITMAP
000000
000000
000000
000000
001860
001860
001860
001860
001860
001b60
001b60
001b60
001b60
001ce0
001ce0
001860
001860
000000
000000
000000
000000
000000
000000
000000
000000
000000
ENDCHAR
STARTCHAR X
ENCODING 88
SWIDTH 480 0
DWIDTH 10 0
BBX 21 26 -10 -9
BITMAP
000000
000000
000000
000000
001860
001860
000cc0
000cc0
000780
000780
000300
000780
000780
000cc0
000cc0
001860
001860
000000
000000
000000
000000
000000
000000
000000
000000
000000
ENDCHAR
STARTCHAR Y
ENCODING 89
SWIDTH 480 0
DWIDTH 10 0
BBX 21 26 -10 -9
BITMAP
000000
000000
000000
000000
001860
001860
000cc0
000cc0
000780
000780
000300
000300
000300
000300
000300
000300
000300
000000
000000
000000
000000
000000
000000
000000
000000
000000
ENDCHAR
STARTCHAR Z
ENCODING 90
SWIDTH 480 0
DWIDTH 10 0
BBX 21 26 -10 -9
BITMAP
000000
000000
000000
000000
001fe0
000060
000060
0000c0
000180
000180
000300
000600
000600
000c00
001800
001800
001fe0
000000
000000
000000
000000
000000
000000
000000
000000
000000
ENDCHAR
STARTCHAR bracketleft
ENCODING 91
SWIDTH 480 0
DWIDTH 10 0
BBX 21 26 -10 -9
BITMAP
000000
000000
000000
000000
000fc0
000c00
000c00
000c00
000c00
000c00
000c00
000c00
000c00
000c00
000c00
000c00
000fc0
000000
000000
000000
000000
000000
000000
000000
000000
000000
ENDCHAR
STARTCHAR backslash
ENCODING 92
SWIDTH 480 0
DWIDTH 10 0
BBX 21 26 -10 -9
BITMAP
000000
000000
000000
000000
000000
000c00
000c00
000600
000600
000300
000300
000180
000180
0000c0
0000c0
000060
000060
000000
000000
000000
000000
000000
000000
000000
000000
000000
ENDCHAR
STARTCHAR bracketright
ENCODING 93
SWIDTH 480 0
DWIDTH 10 0
BBX 21 26 -10 -9
BITMAP
000000
000000
000000
000000
000fc0
0000c0
0000c0
0000c0
0000c0
0000c0
0000c0
0000c0
0000c0
0000c0
0000c0
0000c0
000fc0
000000
000000
000000
000000
000000
000000
000000
000000
000000
ENDCHAR
STARTCHAR asciicircum
ENCODING 94
SWIDTH 480 0
DWIDTH 10 0
BBX 21 26 -10 -9
BITMAP
000000
000000
000000
000000
000300
000780
000cc0
001860
000000
000000
000000
000000
000000
000000
000000
000000
000000
000000
000000
000000
000000
000000
000000
000000
000000
000000
ENDCHAR
STARTCHAR underscore
ENCODING 95
SWIDTH 480 0
DWIDTH 10 0
BBX 21 26 -10 -9
BITMAP
000000
000000
000000
000000
000000
000000
000000
000000
000000
000000
000000
000000
000000
000000
000000
000000
000000
001ff0
000000
000000
000000
000000
000000
000000
000000
000000
ENDCHAR
STARTCHAR grave
ENCODING 96
SWIDTH 480 0
DWIDTH 10 0
BBX 21 26 -10 -9
BITMAP
000000
000000
000000
000000
000f00
000700
000180
000000
000000
000000
000000
000000
000000
000000
000000
000000
000000
000000
000000
000000
000000
000000
000000
000000
000000
000000
ENDCHAR
STARTCHAR a
ENCODING 97
SWIDTH 480 0
DWIDTH 10 0
BBX 21 26 -10 -9
BITMAP
000000
000000
000000
000000
000000
000000
000000
000000
000000
0007c0
000c60
000060
000fe0
001860
001860
001860
000fa0
000000
000000
000000
000000
000000
000000
000000
000000
000000
ENDCHAR
STARTCHAR b
ENCODING 98
SWIDTH 480 0
DWIDTH 10 0
BBX 21 26 -10 -9
BITMAP
000000
000000
000000
000000
001800
001800
001800
001800
001800
001b80
001cc0
001860
001860
001860
001860
001cc0
001b80
000000
000000
000000
000000
000000
000000
000000
000000
000000
ENDCHAR
STARTCHAR c
ENCODING 99
SWIDTH 480 0
DWIDTH 10 0
BBX 21 26 -10 -9
BITMAP
000000
000000
000000
000000
000000
000000
000000
000000
000000
0007c0
000c60
001800
001800
001800
001800
000c60
0007c0
000000
000000
000000
000000
000000
000000
000000
000000
000000
ENDCHAR
STARTCHAR d
ENCODING 100
SWIDTH 480 0
DWIDTH 10 0
BBX 21 26 -10 -9
BITMAP
000000
000000
000000
000000
000060
000060
000060
000060
000060
000760
000ce0
001860
001860
001860
001860
000ce0
000760
000000
000000
000000
000000
000000
000000
000000
000000
000000
ENDCHAR
STARTCHAR e
ENCODING 101
SWIDTH 480 0
DWIDTH 10 0
BBX 21 26 -10 -9
BITMAP
000000
000000
000000
000000
000000
000000
000000
000000
000000
000780
000cc0
001860
001fe0
001800
001800
000c60
0007c0
000000
000000
000000
000000
000000
000000
000000
000000
000000
ENDCHAR
STARTCHAR f
ENCODING 102
SWIDTH 480 0
DWIDTH 10 0
BBX 21 26 -10 -9
BITMAP
000000
000000
000000
000000
0003c0
000660
000660
000600
000600
000600
000600
001f80
000600
000600
000600
000600
000600
000000
000000
000000
000000
000000
000000
000000
000000
000000
ENDCHAR
STARTCHAR g
ENCODING 103
SWIDTH 480 0
DWIDTH 10 0
BBX 21 26 -10 -9
BITMAP
000000
000000
000000
000000
000000
000000
000000
000000
000000
000fa0
0018e0
0018c0
0018c0
0018c0
000f80
001800
000fc0
001860
001860
001860
000fc0
000000
000000
000000
000000
000000
ENDCHAR
STARTCHAR h
ENCODING 104
SWIDTH 480 0
DWIDTH 10 0
BBX 21 26 -10 -9
BITMAP
000000
000000
000000
000000
001800
001800
001800
001800
001800
001b80
001cc0
001860
001860
001860
001860
001860
001860
000000
000000
000000
000000
000000
000000
000000
000000
000000
ENDCHAR
STARTCHAR i
ENCODING 105
SWIDTH 480 0
DWIDTH 10 0
BBX 21 26 -10 -9
BITMAP
000000
000000
000000
000000
000000
000000
000300
000300
000000
000f00
000300
000300
000300
000300
000300
000300
001fe0
000000
000000
000000
000000
000000
000000
000000
000000
000000
ENDCHAR
STARTCHAR j
ENCODING 106
SWIDTH 480 0
DWIDTH 10 0
BBX 21 26 -10 -9
BITMAP
000000
000000
000000
000000
000000
000000
000060
000060
000000
0001e0
000060
000060
000060
000060
000060
000060
000060
000c60
000c60
000c60
0007c0
000000
000000
000000
000000
000000
ENDCHAR
STARTCHAR k
ENCODING 107
SWIDTH 480 0
DWIDTH 10 0
BBX 21 26 -10 -9
BITMAP
000000
000000
000000
000000
001800
001800
001800
001800
001800
0018c0
001980
001b00
001e00
001f00
001980
0018c0
001860
000000
000000
000000
000000
000000
000000
000000
000000
000000
ENDCHAR
STARTCHAR l
ENCODING 108
SWIDTH 480 0
DWIDTH 10 0
BBX 21 26 -10 -9
BITMAP
000000
000000
000000
000000
000f00
000300
000300
000300
000300
000300
000300
000300
000300
000300
000300
000300
001fe0
000000
000000
000000
000000
000000
000000
000000
000000
000000
ENDCHAR
STARTCHAR m
ENCODING 109
SWIDTH 480 0
DWIDTH 10 0
BBX 21 26 -10 -9
BITMAP
000000
000000
000000
000000
000000
000000
000000
000000
000000
0016c0
001fe0
001b60
001b60
001b60
001b60
001b60
001b60
000000
000000
000000
000000
000000
000000
000000
000000
000000
ENDCHAR
STARTCHAR n
ENCODING 110
SWIDTH 480 0
DWIDTH 10 0
BBX 21 26 -10 -9
BITMAP
000000
000000
000000
000000
000000
000000
000000
000000
000000
001b80
001cc0
001860
001860
001860
001860
001860
001860
000000
000000
000000
000000
000000
000000
000000
000000
000000
ENDCHAR
STARTCHAR o
ENCODING 111
SWIDTH 480 0
DWIDTH 10 0
BBX 21 26 -10 -9
BITMAP
000000
000000
000000
000000
000000
000000
000000
000000
000000
000780
000cc0
001860
001860
001860
001860
000cc0
000780
000000
000000
000000
000000
000000
000000
000000
000000
000000
ENDCHAR
STARTCHAR p
ENCODING 112
SWIDTH 480 0
DWIDTH 10 0
BBX 21 26 -10 -9
BITMAP
000000
000000
000000
000000
000000
000000
000000
000000
000000
001b80
001cc0
001860
001860
001860
001860
001cc0
001b80
001800
001800
001800
001800
000000
000000
000000
000000
000000
ENDCHAR
STARTCHAR q
ENCODING 113
SWIDTH 480 0
DWIDTH 10 0
BBX 21 26 -10 -9
BITMAP
000000
000000
000000
000000
000000
000000
000000
000000
000000
000760
000ce0
001860
001860
001860
001860
000ce0
000760
000060
000060
000060
000060
000000
000000
000000
000000
000000
ENDCHAR
STARTCHAR r
ENCODING 114
SWIDTH 480 0
DWIDTH 10 0
BBX 21 26 -10 -9
BITMAP
000000
000000
000000
000000
000000
000000
000000
000000
000000
001bc0
000e60
000c00
000c00
000c00
000c00
000c00
000c00
000000
000000
000000
000000
000000
000000
000000
000000
000000
ENDCHAR
STARTCHAR s
ENCODING 115
SWIDTH 480 0
DWIDTH 10 0
BBX 21 26 -10 -9
BITMAP
000000
000000
000000
000000
000000
000000
000000
000000
000000
000fc0
001860
001800
000fc0
000060
000060
001860
000fc0
000000
000000
000000
000000
000000
000000
000000
000000
000000
ENDCHAR
STARTCHAR t
ENCODING 116
SWIDTH 480 0
DWIDTH 10 0
BBX 21 26 -10 -9
BITMAP
000000
000000
000000
000000
000000
000000
000600
000600
000600
001f80
000600
000600
000600
000600
000600
000660
0003c0
000000
000000
000000
000000
000000
000000
000000
000000
000000
ENDCHAR
STARTCHAR u
ENCODING 117
SWIDTH 480 0
DWIDTH 10 0
BBX 21 26 -10 -9
BITMAP
000000
000000
000000
000000
000000
000000
000000
000000
000000
001860
001860
001860
001860
001860
001860
000ce0
000760
000000
000000
000000
000000
000000
000000
000000
000000
000000
ENDCHAR
STARTCHAR v
ENCODING 118
SWIDTH 480 0
DWIDTH 10 0
BBX 21 26 -10 -9
BITMAP
000000
000000
000000
000000
000000
000000
000000
000000
000000
001860
001860
000cc0
000cc0
000780
000780
000300
000300
000000
000000
000000
000000
000000
000000
000000
000000
000000
ENDCHAR
STARTCHAR w
ENCODING 119
SWIDTH 480 0
DWIDTH 10 0
BBX 21 26 -10 -9
BITMAP
000000
000000
000000
000000
000000
000000
000000
000000
000000
001860
001860
001860
001b60
001b60
001b60
001fe0
000cc0
000000
000000
000000
000000
000000
000000
000000
000000
000000
ENDCHAR
STARTCHAR x
ENCODING 120
SWIDTH 480 0
DWIDTH 10 0
BBX 21 26 -10 -9
BITMAP
000000
000000
000000
000000
000000
000000
000000
000000
000000
001860
000cc0
000780
000300
000300
000780
000cc0
001860
000000
000000
000000
000000
000000
000000
000000
000000
000000
ENDCHAR
STARTCHAR y
ENCODING 121
SWIDTH 480 0
DWIDTH 10 0
BBX 21 26 -10 -9
BITMAP
000000
000000
000000
000000
000000
000000
000000
000000
000000
001860
001860
001860
001860
001860
001860
000ce0
000760
000060
001860
000cc0
000780
000000
000000
000000
000000
000000
ENDCHAR
STARTCHAR z
ENCODING 122
SWIDTH 480 0
DWIDTH 10 0
BBX 21 26 -10 -9
BITMAP
000000
000000
000000
000000
000000
000000
000000
000000
000000
000fe0
000060
0000c0
000180
000300
000600
000c00
000fe0
000000
000000
000000
000000
000000
000000
000000
000000
000000
ENDCHAR
STARTCHAR braceleft
ENCODING 123
SWIDTH 480 0
DWIDTH 10 0
BBX 21 26 -10 -9
BITMAP
000000
000000
000000
000000
0001e0
000300
000300
000300
000300
000300
001e00
000300
000300
000300
000300
000300
0001e0
000000
000000
000000
000000
000000
000000
000000
000000
000000
ENDCHAR
STARTCHAR bar
ENCODING 124
SWIDTH 480 0
DWIDTH 10 0
BBX 21 26 -10 -9
BITMAP
000000
000000
000000
000000
000300
000300
000300
000300
000300
000300
000300
000300
000300
000300
000300
000300
000300
000000
000000
000000
000000
000000
000000
000000
000000
000000
ENDCHAR
STARTCHAR braceright
ENCODING 125
SWIDTH 480 0
DWIDTH 10 0
BBX 21 26 -10 -9
BITMAP
000000
000000
000000
000000
001e00
000300
000300
000300
000300
000300
0001e0
000300
000300
000300
000300
000300
001e00
000000
000000
000000
000000
000000
000000
000000
000000
000000
ENDCHAR
STARTCHAR asciitilde
ENCODING 126
SWIDTH 480 0
DWIDTH 10 0
BBX 21 26 -10 -9
BITMAP
000000
000000
000000
000000
000e60
001b60
0019c0
000000
000000
000000
000000
000000
000000
000000
000000
000000
000000
000000
000000
000000
000000
000000
000000
000000
000000
000000
ENDCHAR
STARTCHAR C177
ENCODING 127
SWIDTH 480 0
DWIDTH 10 0
BBX 21 26 -10 -9
BITMAP
000000
000000
000000
000000
000000
000000
000000
000000
000000
000000
000000
000000
000000
000000
000000
000000
000000
000000
000000
000000
000000
000000
000000
000000
000000
000000
ENDCHAR
STARTCHAR C200
ENCODING 128
SWIDTH 480 0
DWIDTH 10 0
BBX 21 26 -10 -9
BITMAP
000000
000000
000000
000000
000000
000000
000000
000000
0007b0
000ce0
000fc0
000060
000360
0005e0
0003e0
000060
000060
000000
000000
000000
000000
000000
000000
000000
000000
000000
ENDCHAR
STARTCHAR C201
ENCODING 129
SWIDTH 1000 0
DWIDTH 21 0
BBX 21 26 -10 -9
BITMAP
000000
000000
000000
000000
7c0000
c60000
fe0000
000000
000000
000000
000000
000000
000000
000000
000000
000000
000000
000000
000000
000000
000000
000000
000000
000000
000000
000000
ENDCHAR
STARTCHAR C202
ENCODING 130
SWIDTH 1000 0
DWIDTH 21 0
BBX 21 26 -10 -9
BITMAP
000000
000000
000000
000000
760000
ce0000
fe0000
000000
000000
000000
000000
000000
000000
000000
000000
000000
000000
000000
000000
000000
000000
000000
000000
000000
000000
000000
ENDCHAR
STARTCHAR C203
ENCODING 131
SWIDTH 1000 0
DWIDTH 21 0
BBX 21 26 -10 -9
BITMAP
000000
000000
000000
018000
3e8000
638000
7f0000
000000
000000
000000
000000
000000
000000
000000
000000
000000
000000
000000
000000
000000
000000
000000
000000
000000
000000
000000
ENDCHAR
STARTCHAR C204
ENCODING 132
SWIDTH 1000 0
DWIDTH 21 0
BBX 21 26 -10 -9
BITMAP
000000
000000
000000
0d0000
7d0000
c70000
ff0000
000000
000000
000000
000000
000000
000000
000000
000000
000000
000000
000000
000000
000000
000000
000000
000000
000000
000000
000000
ENDCHAR
STARTCHAR C205
ENCODING 133
SWIDTH 480 0
DWIDTH 10 0
BBX 21 26 -10 -9
BITMAP
000000
000000
000000
000000
000000
000000
000000
000000
000000
000000
000000
000000
000000
000000
000000
003330
003330
000000
000000
000000
000000
000000
000000
000000
000000
000000
ENDCHAR
STARTCHAR C206
ENCODING 134
SWIDTH 1000 0
DWIDTH 21 0
BBX 21 26 -10 -9
BITMAP
000000
000000
000000
060000
060000
060000
060000
000000
000000
000000
000000
000000
000000
000000
000000
000000
000000
000000
000000
000000
000000
000000
000000
000000
000000
000000
ENDCHAR
STARTCHAR C207
ENCODING 135
SWIDTH 1000 0
DWIDTH 21 0
BBX 21 26 -10 -9
BITMAP
000000
000000
000000
398000
190000
1f0000
3e0000
000000
000000
000000
000000
000000
000000
000000
000000
000000
000000
000000
000000
000000
000000
000000
000000
000000
000000
000000
ENDCHAR
STARTCHAR C210
ENCODING 136
SWIDTH 1000 0
DWIDTH 21 0
BBX 21 26 -10 -9
BITMAP
000000
000000
008000
368000
3f8000
330000
330000
000000
000000
000000
000000
000000
000000
000000
000000
000000
000000
000000
000000
000000
000000
000000
000000
000000
000000
000000
ENDCHAR
STARTCHAR C211
ENCODING 137
SWIDTH 1000 0
DWIDTH 21 0
BBX 21 26 -10 -9
BITMAP
000000
000000
0c0000
0c0000
3f0000
0c0000
0c0000
000000
000000
000000
000000
000000
000000
000000
000000
000000
000000
000000
000000
000000
000000
000000
000000
000000
000000
000000
ENDCHAR
STARTCHAR C212
ENCODING 138
SWIDTH 1000 0
DWIDTH 21 0
BBX 21 26 -10 -9
BITMAP
000000
018000
018000
070000
0c0000
0e0000
060000
000000
000000
000000
000000
000000
000000
000000
000000
000000
000000
000000
000000
000000
000000
000000
000000
000000
000000
000000
ENDCHAR
STARTCHAR C213
ENCODING 139
SWIDTH 1000 0
DWIDTH 21 0
BBX 21 26 -10 -9
BITMAP
000000
000000
000000
018000
018000
018000
018000
000000
000000
000000
000000
000000
000000
000000
000000
000000
000000
000000
000000
000000
000000
000000
000000
000000
000000
000000
ENDCHAR
STARTCHAR C214
ENCODING 140
SWIDTH 1000 0
DWIDTH 21 0
BBX 21 26 -10 -9
BITMAP
000000
000000
000000
0e6000
064000
07c000
0f8000
000000
000000
000000
000000
000000
000000
000000
000000
000000
000000
000000
000000
000000
000000
000000
000000
000000
000000
000000
ENDCHAR
STARTCHAR C215
ENCODING 141
SWIDTH 1000 0
DWIDTH 21 0
BBX 21 26 -10 -9
BITMAP
000000
000000
002000
0da000
0fe000
0cc000
0cc000
000000
000000
000000
000000
000000
000000
000000
000000
000000
000000
000000
000000
000000
000000
000000
000000
000000
000000
000000
ENDCHAR
STARTCHAR C216
ENCODING 142
SWIDTH 1000 0
DWIDTH 21 0
BBX 21 26 -10 -9
BITMAP
000000
000000
030000
030000
0fc000
030000
030000
000000
000000
000000
000000
000000
000000
000000
000000
000000
000000
000000
000000
000000
000000
000000
000000
000000
000000
000000
ENDCHAR
STARTCHAR C217
ENCODING 143
SWIDTH 1000 0
DWIDTH 21 0
BBX 21 26 -10 -9
BITMAP
000000
006000
006000
01c000
030000
038000
018000
000000
000000
000000
000000
000000
000000
000000
000000
000000
000000
000000
000000
000000
000000
000000
000000
000000
000000
000000
ENDCHAR
STARTCHAR C220
ENCODING 144
SWIDTH 480 0
DWIDTH 10 0
BBX 21 26 -10 -9
BITMAP
000000
000000
000000
000000
000000
000000
000000
000000
000f30
0019b0
000db0
0019b0
0019b0
0019b0
001db0
001bb0
000df0
000000
000000
000000
000000
000000
000000
000000
000000
000000
ENDCHAR
STARTCHAR C221
ENCODING 145
SWIDTH 480 0
DWIDTH 10 0
BBX 21 26 -10 -9
BITMAP
000000
000000
000000
000000
000180
000200
000380
000180
000000
000000
000000
000000
000000
000000
000000
000000
000000
000000
000000
000000
000000
000000
000000
000000
000000
000000
ENDCHAR
STARTCHAR C222
ENCODING 146
SWIDTH 480 0
DWIDTH 10 0
BBX 21 26 -10 -9
BITMAP
000000
000000
000000
000000
000300
000380
000080
000300
000000
000000
000000
000000
000000
000000
000000
000000
000000
000000
000000
000000
000000
000000
000000
000000
000000
000000
ENDCHAR
STARTCHAR C223
ENCODING 147
SWIDTH 480 0
DWIDTH 10 0
BBX 21 26 -10 -9
BITMAP
000000
000000
000000
000000
000cc0
001100
001dc0
000cc0
000000
000000
000000
000000
000000
000000
000000
000000
000000
000000
000000
000000
000000
000000
000000
000000
000000
000000
ENDCHAR
STARTCHAR C224
ENCODING 148
SWIDTH 480 0
DWIDTH 10 0
BBX 21 26 -10 -9
BITMAP
000000
000000
000000
000000
001980
001dc0
000440
001980
000000
000000
000000
000000
000000
000000
000000
000000
000000
000000
000000
000000
000000
000000
000000
000000
000000
000000
ENDCHAR
STARTCHAR C225
ENCODING 149
SWIDTH 480 0
DWIDTH 10 0
BBX 21 26 -10 -9
BITMAP
000000
000000
000000
000000
000000
000000
000000
000000
000780
000fc0
000fc0
000fc0
000fc0
000780
000000
000000
000000
000000
000000
000000
000000
000000
000000
000000
000000
000000
ENDCHAR
STARTCHAR C226
ENCODING 150
SWIDTH 480 0
DWIDTH 10 0
BBX 21 26 -10 -9
BITMAP
000000
000000
000000
000000
000000
000000
000000
000000
000000
000000
000fc0
000000
000000
000000
000000
000000
000000
000000
000000
000000
000000
000000
000000
000000
000000
000000
ENDCHAR
STARTCHAR C227
ENCODING 151
SWIDTH 480 0
DWIDTH 10 0
BBX 21 26 -10 -9
BITMAP
000000
000000
000000
000000
000000
000000
000000
000000
000000
000000
003ff0
000000
000000
000000
000000
000000
000000
000000
000000
000000
000000
000000
000000
000000
000000
000000
ENDCHAR
STARTCHAR C230
ENCODING 152
SWIDTH 1000 0
DWIDTH 21 0
BBX 21 26 -10 -9
BITMAP
000000
000000
000000
000000
100000
298000
1f0000
000000
000000
000000
000000
000000
000000
000000
000000
000000
000000
000000
000000
000000
000000
000000
000000
000000
000000
000000
ENDCHAR
STARTCHAR C231
ENCODING 153
SWIDTH 1000 0
DWIDTH 21 0
BBX 21 26 -10 -9
BITMAP
000000
000000
000000
000000
0e0000
120000
1c0000
000000
000000
000000
000000
000000
000000
000000
000000
000000
000000
000000
000000
000000
000000
000000
000000
000000
000000
000000
ENDCHAR
STARTCHAR C232
ENCODING 154
SWIDTH 1000 0
DWIDTH 21 0
BBX 21 26 -10 -9
BITMAP
000000
000000
030000
3e0000
600000
660000
7e0000
000000
000000
000000
000000
000000
000000
000000
000000
000000
000000
000000
000000
000000
000000
000000
000000
000000
000000
000000
ENDCHAR
STARTCHAR C233
ENCODING 155
SWIDTH 1000 0
DWIDTH 21 0
BBX 21 26 -10 -9
BITMAP
000000
030000
030000
000000
000000
000000
000000
000000
000000
000000
000000
000000
000000
000000
000000
000000
000000
000000
000000
000000
000000
000000
000000
000000
000000
000000
ENDCHAR
STARTCHAR C234
ENCODING 156
SWIDTH 1000 0
DWIDTH 21 0
BBX 21 26 -10 -9
BITMAP
000000
1d8000
0f0000
0e0000
000000
000000
000000
000000
000000
000000
000000
000000
000000
000000
000000
000000
000000
000000
000000
000000
000000
000000
000000
000000
000000
000000
ENDCHAR
STARTCHAR C235
ENCODING 157
SWIDTH 1000 0
DWIDTH 21 0
BBX 21 26 -10 -9
BITMAP
000000
3e8000
378000
370000
000000
000000
000000
000000
000000
000000
000000
000000
000000
000000
000000
000000
000000
000000
000000
000000
000000
000000
000000
000000
000000
000000
ENDCHAR
STARTCHAR C236
ENCODING 158
SWIDTH 1000 0
DWIDTH 21 0
BBX 21 26 -10 -9
BITMAP
000000
030000
078000
030000
000000
000000
000000
000000
000000
000000
000000
000000
000000
000000
000000
000000
000000
000000
000000
000000
000000
000000
000000
000000
000000
000000
ENDCHAR
STARTCHAR C237
ENCODING 159
SWIDTH 1000 0
DWIDTH 21 0
BBX 21 26 -10 -9
BITMAP
000000
00c000
018000
01c000
000000
000000
000000
000000
000000
000000
000000
000000
000000
000000
000000
000000
000000
000000
000000
000000
000000
000000
000000
000000
000000
000000
ENDCHAR
STARTCHAR nobreakspace
ENCODING 160
SWIDTH 480 0
DWIDTH 10 0
BBX 21 26 -10 -9
BITMAP
000000
000000
000000
000000
000000
000000
000000
000000
000000
000000
000000
000000
000000
000000
000000
000000
000000
000000
000000
000000
000000
000000
000000
000000
000000
000000
ENDCHAR
STARTCHAR exclamdown
ENCODING 161
SWIDTH 480 0
DWIDTH 10 0
BBX 21 26 -10 -9
BITMAP
000000
000000
000000
000000
000000
000000
000000
000000
000fc0
001860
000c60
001860
001860
001860
001860
001860
001860
000000
000000
000000
000000
000000
000000
000000
000000
000000
ENDCHAR
STARTCHAR cent
ENCODING 162
SWIDTH 480 0
DWIDTH 10 0
BBX 21 26 -10 -9
BITMAP
000000
000000
000000
000000
000000
000000
000000
000000
000f60
001be0
000fe0
000360
000660
000660
000660
000660
000fe0
000000
000000
000000
000000
000000
000000
000000
000000
000000
ENDCHAR
STARTCHAR sterling
ENCODING 163
SWIDTH 480 0
DWIDTH 10 0
BBX 21 26 -10 -9
BITMAP
000000
000000
000000
000000
000000
000000
000000
000000
000fb0
001af0
001df0
0017b0
000f30
000330
000330
000330
0007f0
000000
000000
000000
000000
000000
000000
000000
000000
000000
ENDCHAR
STARTCHAR currency
ENCODING 164
SWIDTH 480 0
DWIDTH 10 0
BBX 21 26 -10 -9
BITMAP
000000
000000
000000
000000
000000
000000
000000
000000
000fc0
001860
001860
001b60
001f60
001c60
000c60
000c60
000c60
000000
000000
000000
000000
000000
000000
000000
000000
000000
ENDCHAR
STARTCHAR yen
ENCODING 165
SWIDTH 432 0
DWIDTH 9 0
BBX 21 26 -10 -9
BITMAP
000000
000000
000000
000000
000000
000000
000000
000000
000fc0
001b60
001860
001b60
001f60
001c60
000c60
000c60
000c60
000000
000000
000000
000000
000000
000000
000000
000000
000000
ENDCHAR
STARTCHAR brokenbar
ENCODING 166
SWIDTH 480 0
DWIDTH 10 0
BBX 21 26 -10 -9
BITMAP
000000
000000
000000
000000
000000
000000
000000
000000
001b30
0035b0
0031b0
002b30
001b30
000730
000bb0
000b70
000670
000000
000000
000000
000000
000000
000000
000000
000000
000000
ENDCHAR
STARTCHAR section
ENCODING 167
SWIDTH 480 0
DWIDTH 10 0
BBX 21 26 -10 -9
BITMAP
000000
000000
000000
000000
000000
000000
000000
000000
0001c0
000360
0001e0
001860
000c60
000660
000360
0001e0
0000e0
000000
000000
000000
000000
000000
000000
000000
000000
000000
ENDCHAR
STARTCHAR diaeresis
ENCODING 168
SWIDTH 480 0
DWIDTH 10 0
BBX 21 26 -10 -9
BITMAP
000000
000000
000000
000000
000000
000000
000000
000000
000fc0
001860
000060
000760
000de0
0007e0
0000e0
000060
000060
000000
000000
000000
000000
000000
000000
000000
000000
000000
ENDCHAR
STARTCHAR copyright
ENCODING 169
SWIDTH 480 0
DWIDTH 10 0
BBX 21 26 -10 -9
BITMAP
000000
000000
000000
000000
000000
000000
000000
000000
000fc0
001860
000060
000e60
001a60
000ee0
0007d0
000770
000660
000000
000000
000000
000000
000000
000000
000000
000000
000000
ENDCHAR
STARTCHAR ordfeminine
ENCODING 170
SWIDTH 480 0
DWIDTH 10 0
BBX 21 26 -10 -9
BITMAP
000000
000000
000000
000000
000000
000000
000000
000030
000f30
0015e0
000df0
000330
000330
000330
000330
000330
0007f0
000000
000000
000000
000000
000000
000000
000000
000000
000000
ENDCHAR
STARTCHAR guillemotleft
ENCODING 171
SWIDTH 480 0
DWIDTH 10 0
BBX 21 26 -10 -9
BITMAP
000000
000000
000000
000000
000000
000000
000000
000030
000fb0
001ae0
001cf0
001b30
000f30
000330
000330
000330
0007f0
000000
000000
000000
000000
000000
000000
000000
000000
000000
ENDCHAR
STARTCHAR notsign
ENCODING 172
SWIDTH 480 0
DWIDTH 10 0
BBX 21 26 -10 -9
BITMAP
000000
000000
000000
000000
000000
000000
000000
000000
000f30
0019b0
000db0
0019b0
0019b0
0019b0
001df0
001af0
000db0
000000
000000
000000
000000
000000
000000
000000
000000
000000
ENDCHAR
STARTCHAR hyphen
ENCODING 173
SWIDTH 480 0
DWIDTH 10 0
BBX 21 26 -10 -9
BITMAP
000000
000000
000000
000000
000000
000000
000000
000000
000f30
0019b0
000db0
0019b0
0019b0
0019b0
001db0
001bb0
000df0
000080
000150
0000e0
000000
000000
000000
000000
000000
000000
ENDCHAR
STARTCHAR registered
ENCODING 174
SWIDTH 480 0
DWIDTH 10 0
BBX 21 26 -10 -9
BITMAP
000000
000000
000000
000000
000000
000000
000000
000000
0003e0
000630
000330
000630
000630
000630
000e30
001630
000c30
000130
000330
0005f0
000330
000000
000000
000000
000000
000000
ENDCHAR
STARTCHAR macron
ENCODING 175
SWIDTH 480 0
DWIDTH 10 0
BBX 21 26 -10 -9
BITMAP
000000
000000
000000
000000
000000
000000
000000
000000
0003e0
000630
000330
000630
000630
000630
000e30
001630
000c30
000230
0006b0
000b70
000530
000000
000000
000000
000000
000000
ENDCHAR
STARTCHAR degree
ENCODING 176
SWIDTH 480 0
DWIDTH 10 0
BBX 21 26 -10 -9
BITMAP
000000
000000
000000
000000
000000
000000
000000
000000
0007b0
000ce0
000fc0
000060
000360
0005e0
0003e0
000060
000060
000300
000f60
001ae0
000d60
000000
000000
000000
000000
000000
ENDCHAR
STARTCHAR plusminus
ENCODING 177
SWIDTH 480 0
DWIDTH 10 0
BBX 21 26 -10 -9
BITMAP
000000
000000
000000
000000
000000
000000
000000
000000
0012e0
003ff0
002bb0
001730
000630
000630
000630
000630
000630
000000
000000
000000
000000
000000
000000
000000
000000
000000
ENDCHAR
STARTCHAR twosuperior
ENCODING 178
SWIDTH 480 0
DWIDTH 10 0
BBX 21 26 -10 -9
BITMAP
000000
000000
000000
000000
000000
000000
000000
000000
001b30
0035b0
0031b0
0035b0
003bb0
0037b0
003ff0
001bf0
0019b0
000000
000000
000000
000000
000000
000000
000000
000000
000000
ENDCHAR
STARTCHAR threesuperior
ENCODING 179
SWIDTH 480 0
DWIDTH 10 0
BBX 21 26 -10 -9
BITMAP
000000
000000
000000
000000
000000
000000
000000
000000
001e60
003360
001b60
003360
003360
003360
003bf0
002b70
001b60
000000
000000
000000
000000
000000
000000
000000
000000
000000
ENDCHAR
STARTCHAR acute
ENCODING 180
SWIDTH 480 0
DWIDTH 10 0
BBX 21 26 -10 -9
BITMAP
000000
000000
000000
000000
000000
000000
000000
000000
000fc0
001860
001860
001a60
001d60
001b60
000b60
000e60
000c60
000000
000000
000000
000000
000000
000000
000000
000000
000000
ENDCHAR
STARTCHAR mu
ENCODING 181
SWIDTH 480 0
DWIDTH 10 0
BBX 21 26 -10 -9
BITMAP
000000
000000
000000
000000
000000
000000
000000
000000
000fc0
001b60
001860
001a60
001d60
001b60
000f60
000e60
000c60
000000
000000
000000
000000
000000
000000
000000
000000
000000
ENDCHAR
STARTCHAR paragraph
ENCODING 182
SWIDTH 480 0
DWIDTH 10 0
BBX 21 26 -10 -9
BITMAP
000000
000000
000000
000000
000000
000000
000000
000000
000fc0
001860
000c60
001860
001860
001860
001c60
001660
000c60
000000
000000
000000
000000
000000
000000
000000
000000
000000
ENDCHAR
STARTCHAR periodcentered
ENCODING 183
SWIDTH 480 0
DWIDTH 10 0
BBX 21 26 -10 -9
BITMAP
000000
000000
000000
000000
000000
000000
000000
000000
000ce0
0017b0
000f30
000630
000630
000630
000630
000630
000630
000000
000000
000000
000000
000000
000000
000000
000000
000000
ENDCHAR
STARTCHAR cedilla
ENCODING 184
SWIDTH 480 0
DWIDTH 10 0
BBX 21 26 -10 -9
BITMAP
000000
000000
000000
000000
000000
000000
000000
000000
0007e0
000c00
001fc0
000060
000660
000660
000660
000660
000fe0
000000
000000
000000
000000
000000
000000
000000
000000
000000
ENDCHAR
STARTCHAR onesuperior
ENCODING 185
SWIDTH 480 0
DWIDTH 10 0
BBX 21 26 -10 -9
BITMAP
000000
000000
000000
000000
000000
000000
000000
000000
0018c0
002cc0
001cc0
000cc0
000cc0
000ce0
000dd0
000f50
000e60
000000
000000
000000
000000
000000
000000
000000
000000
000000
ENDCHAR
STARTCHAR masculine
ENCODING 186
SWIDTH 480 0
DWIDTH 10 0
BBX 21 26 -10 -9
BITMAP
000000
000000
000000
000000
000000
000000
000000
000000
000c30
001630
000e30
000630
000630
000630
000630
000630
000ff0
000000
000000
000000
000000
000000
000000
000000
000000
000000
ENDCHAR
STARTCHAR guillemotright
ENCODING 187
SWIDTH 480 0
DWIDTH 10 0
BBX 21 26 -10 -9
BITMAP
000000
000000
000000
000000
000030
000030
000030
000030
000c30
001630
000e30
000630
000630
000630
000630
000630
000ff0
000000
000000
000000
000000
000000
000000
000000
000000
000000
ENDCHAR
STARTCHAR onequarter
ENCODING 188
SWIDTH 480 0
DWIDTH 10 0
BBX 21 26 -10 -9
BITMAP
000000
000000
000000
000000
000000
000000
000000
000000
000c60
001a60
001c60
001860
001860
001b60
001fe0
001ce0
001860
000000
000000
000000
000000
000000
000000
000000
000000
000000
ENDCHAR
STARTCHAR onehalf
ENCODING 189
SWIDTH 480 0
DWIDTH 10 0
BBX 21 26 -10 -9
BITMAP
000000
000000
000000
000000
000060
000060
000060
000060
000c60
001a60
001c60
001860
001860
001b60
001fe0
001ce0
001860
000000
000000
000000
000000
000000
000000
000000
000000
000000
ENDCHAR
STARTCHAR threequarters
ENCODING 190
SWIDTH 480 0
DWIDTH 10 0
BBX 21 26 -10 -9
BITMAP
000000
000000
000000
000000
000000
000000
000000
000000
001860
002c60
001c60
000d60
000d60
000fe0
000ee0
000c60
000c60
000000
000000
000000
000000
000000
000000
000000
000000
000000
ENDCHAR
STARTCHAR questiondown
ENCODING 191
SWIDTH 480 0
DWIDTH 10 0
BBX 21 26 -10 -9
BITMAP
000000
000000
000000
000000
000060
000060
000060
000060
001860
002c60
001c60
000d60
000d60
000fe0
000ee0
000c60
000c60
000000
000000
000000
000000
000000
000000
000000
000000
000000
ENDCHAR
STARTCHAR Agrave
ENCODING 192
SWIDTH 480 0
DWIDTH 10 0
BBX 21 26 -10 -9
BITMAP
000000
000000
000000
000000
000000
000000
000000
000000
0003e0
000630
000330
000630
000630
000630
000e30
001630
000c30
000000
000000
000000
000000
000000
000000
000000
000000
000000
ENDCHAR
STARTCHAR Aacute
ENCODING 193
SWIDTH 480 0
DWIDTH 10 0
BBX 21 26 -10 -9
BITMAP
000000
000000
000000
000000
000000
000000
000000
000000
000c30
001630
000e30
000630
000630
000f30
0017b0
001670
000e30
000000
000000
000000
000000
000000
000000
000000
000000
000000
ENDCHAR
STARTCHAR Acircumflex
ENCODING 194
SWIDTH 480 0
DWIDTH 10 0
BBX 21 26 -10 -9
BITMAP
000000
000000
000000
000000
000000
000000
000000
000000
000c60
001660
001c60
001860
000e60
001860
001860
001860
001fe0
000000
000000
000000
000000
000000
000000
000000
000000
000000
ENDCHAR
STARTCHAR Atilde
ENCODING 195
SWIDTH 480 0
DWIDTH 10 0
BBX 21 26 -10 -9
BITMAP
000000
000000
000000
000000
000000
000000
000000
000000
0007e0
000c00
000fc0
000060
000060
000060
0000e0
000160
0000c0
000000
000000
000000
000000
000000
000000
000000
000000
000000
ENDCHAR
STARTCHAR Adiaeresis
ENCODING 196
SWIDTH 480 0
DWIDTH 10 0
BBX 21 26 -10 -9
BITMAP
000000
000000
000000
000000
000000
000000
000000
000000
000fc0
001860
000c60
001860
001860
001860
001c60
001660
000c60
000060
000060
000060
000000
000000
000000
000000
000000
000000
ENDCHAR
STARTCHAR Aring
ENCODING 197
SWIDTH 480 0
DWIDTH 10 0
BBX 21 26 -10 -9
BITMAP
000000
000000
000000
000000
000000
000000
000000
000000
000fc0
001860
000060
000e60
0019e0
0018e0
001c60
001a60
000c60
000000
000000
000000
000000
000000
000000
000000
000000
000000
ENDCHAR
STARTCHAR AE
ENCODING 198
SWIDTH 480 0
DWIDTH 10 0
BBX 21 26 -10 -9
BITMAP
000000
000000
000000
000000
000000
000000
000000
000000
0007c0
000c60
000660
000c60
000c60
000c60
001c60
002c60
001860
000060
000060
000060
000000
000000
000000
000000
000000
000000
ENDCHAR
STARTCHAR Ccedilla
ENCODING 199
SWIDTH 480 0
DWIDTH 10 0
BBX 21 26 -10 -9
BITMAP
000000
000000
000000
000000
000000
000000
000000
000000
000fc0
001860
000060
000060
000060
000060
0000e0
000160
0000c0
000000
000000
000000
000000
000000
000000
000000
000000
000000
ENDCHAR
STARTCHAR Egrave
ENCODING 200
SWIDTH 480 0
DWIDTH 10 0
BBX 21 26 -10 -9
BITMAP
000000
000000
000000
000000
000000
000000
000000
000060
000fe0
0018c0
001860
001b60
001f60
001c60
000c60
000c60
000c60
000000
000000
000000
000000
000000
000000
000000
000000
000000
ENDCHAR
STARTCHAR Eacute
ENCODING 201
SWIDTH 480 0
DWIDTH 10 0
BBX 21 26 -10 -9
BITMAP
000000
000000
000000
000000
000000
000000
000000
000000
001860
002c60
001c60
000d60
000df0
000c60
000c60
000c60
001fe0
000000
000000
000000
000000
000000
000000
000000
000000
000000
ENDCHAR
STARTCHAR Ecircumflex
ENCODING 202
SWIDTH 480 0
DWIDTH 10 0
BBX 21 26 -10 -9
BITMAP
000000
000000
000000
000000
000000
000000
000000
000060
000fc0
001860
000060
000f60
0019e0
0018e0
001c60
001a60
000c60
000000
000000
000000
000000
000000
000000
000000
000000
000000
ENDCHAR
STARTCHAR Ediaeresis
ENCODING 203
SWIDTH 480 0
DWIDTH 10 0
BBX 21 26 -10 -9
BITMAP
000000
000000
000000
000000
000000
000000
000000
000000
0018c0
002da0
001cc0
000de0
000f60
000e60
000c60
000c60
000c60
000000
000000
000000
000000
000000
000000
000000
000000
000000
ENDCHAR
STARTCHAR Igrave
ENCODING 204
SWIDTH 480 0
DWIDTH 10 0
BBX 21 26 -10 -9
BITMAP
000000
000000
000000
000000
000000
000000
000000
000060
0018e0
002cc0
001c60
000d60
000d60
000fe0
000ee0
000c60
000c60
000000
000000
000000
000000
000000
000000
000000
000000
000000
ENDCHAR
STARTCHAR Iacute
ENCODING 205
SWIDTH 480 0
DWIDTH 10 0
BBX 21 26 -10 -9
BITMAP
000000
000000
000000
000000
000000
000000
000000
000000
000fc0
001860
000060
000c60
001a60
001c60
001860
001860
001fe0
000000
000000
000000
000000
000000
000000
000000
000000
000000
ENDCHAR
STARTCHAR Icircumflex
ENCODING 206
SWIDTH 480 0
DWIDTH 10 0
BBX 21 26 -10 -9
BITMAP
000000
000000
000000
000000
000000
000000
000000
000060
000fe0
001840
000fe0
000c60
001a60
001c60
001860
001860
001fe0
000000
000000
000000
000000
000000
000000
000000
000000
000000
ENDCHAR
STARTCHAR Idiaeresis
ENCODING 207
SWIDTH 480 0
DWIDTH 10 0
BBX 21 26 -10 -9
BITMAP
000000
000000
000000
000000
000000
000000
000000
000000
000c60
001a60
001c60
0018e0
000fe0
000060
000060
000060
0001c0
000000
000000
000000
000000
000000
000000
000000
000000
000000
ENDCHAR
STARTCHAR ETH
ENCODING 208
SWIDTH 480 0
DWIDTH 10 0
BBX 21 26 -10 -9
BITMAP
000000
000000
000000
000000
000000
000000
000000
000000
000c00
001660
000fc0
000000
000000
000000
000c00
001660
000fc0
000000
000000
000000
000000
000000
000000
000000
000000
000000
ENDCHAR
STARTCHAR Ntilde
ENCODING 209
SWIDTH 480 0
DWIDTH 10 0
BBX 21 26 -10 -9
BITMAP
000000
000000
000000
000000
000400
000a60
0007c0
000000
000000
000000
000000
000000
000000
000000
000000
000000
000000
000000
000000
000000
000000
000000
000000
000000
000000
000000
ENDCHAR
STARTCHAR Ograve
ENCODING 210
SWIDTH 480 0
DWIDTH 10 0
BBX 21 26 -10 -9
BITMAP
000000
000000
000000
000000
000000
000000
000000
000000
0007c0
000c60
000060
000060
000060
000060
000060
000060
000060
000000
000000
000000
000000
000000
000000
000000
000000
000000
ENDCHAR
STARTCHAR Oacute
ENCODING 211
SWIDTH 480 0
DWIDTH 10 0
BBX 21 26 -10 -9
BITMAP
000000
000000
000000
000000
038000
048000
070000
000000
0007c0
000c60
000060
000060
000060
000060
000060
000060
000060
000000
000000
000000
000000
000000
000000
000000
000000
000000
ENDCHAR
STARTCHAR Ocircumflex
ENCODING 212
SWIDTH 480 0
DWIDTH 10 0
BBX 21 26 -10 -9
BITMAP
000000
000000
000000
000000
000f80
0018c0
001fc0
000000
000000
000000
000000
000000
000000
000000
000000
000000
000000
000000
000000
000000
000000
000000
000000
000000
000000
000000
ENDCHAR
STARTCHAR Otilde
ENCODING 213
SWIDTH 480 0
DWIDTH 10 0
BBX 21 26 -10 -9
BITMAP
000000
000000
000000
000000
000ec0
0019c0
001fc0
000000
000000
000000
000000
000000
000000
000000
000000
000000
000000
000000
000000
000000
000000
000000
000000
000000
000000
000000
ENDCHAR
STARTCHAR Odiaeresis
ENCODING 214
SWIDTH 480 0
DWIDTH 10 0
BBX 21 26 -10 -9
BITMAP
000000
000000
000000
000060
000fa0
0018e0
001fc0
000000
000000
000000
000000
000000
000000
000000
000000
000000
000000
000000
000000
000000
000000
000000
000000
000000
000000
000000
ENDCHAR
STARTCHAR multiply
ENCODING 215
SWIDTH 480 0
DWIDTH 10 0
BBX 21 26 -10 -9
BITMAP
000000
000000
000000
0001a0
000fa0
0018e0
001fe0
000000
000000
000000
000000
000000
000000
000000
000000
000000
000000
000000
000000
000000
000000
000000
000000
000000
000000
000000
ENDCHAR
STARTCHAR Ooblique
ENCODING 216
SWIDTH 480 0
DWIDTH 10 0
BBX 21 26 -10 -9
BITMAP
000000
000000
000000
000000
000000
000000
000000
000000
000000
000000
000000
000000
000000
000000
000000
000000
000000
0000c0
000160
0000e0
000060
000000
000000
000000
000000
000000
ENDCHAR
STARTCHAR Ugrave
ENCODING 217
SWIDTH 480 0
DWIDTH 10 0
BBX 21 26 -10 -9
BITMAP
000000
000000
000000
000000
000000
000000
000000
000000
000000
000000
000000
000000
000000
000000
000000
000000
000000
000420
000b60
000760
0003e0
000000
000000
000000
000000
000000
ENDCHAR
STARTCHAR Uacute
ENCODING 218
SWIDTH 480 0
DWIDTH 10 0
BBX 21 26 -10 -9
BITMAP
000000
000000
000000
000000
000000
000000
000000
000000
000000
000000
000000
000000
000000
000000
000000
000000
000000
000000
000180
000180
000000
000000
000000
000000
000000
000000
ENDCHAR
STARTCHAR Udiaeresis
ENCODING 220
SWIDTH 480 0
DWIDTH 10 0
BBX 21 26 -10 -9
BITMAP
000000
000000
000000
000000
000000
000000
000000
000000
000000
000000
000000
000000
000000
000000
000000
000000
000000
001fe0
001fe0
001020
000000
000000
000000
000000
000000
000000
ENDCHAR
STARTCHAR ssharp
ENCODING 223
SWIDTH 480 0
DWIDTH 10 0
BBX 21 26 -10 -9
BITMAP
000000
000200
000200
001f00
001b80
001ac0
001ac0
001ac0
001b80
001f80
001ac0
001a60
001a60
001a60
001ac0
001f80
000200
000200
000000
000000
000000
000000
000000
000000
000000
000000
ENDCHAR
STARTCHAR agrave
ENCODING 224
SWIDTH 480 0
DWIDTH 10 0
BBX 21 26 -10 -9
BITMAP
000000
000000
000000
000000
000000
000000
000000
000000
000300
000300
000300
000300
000300
000300
000380
000340
000180
000000
000000
000000
000000
000000
000000
000000
000000
000000
ENDCHAR
STARTCHAR aacute
ENCODING 225
SWIDTH 480 0
DWIDTH 10 0
BBX 21 26 -10 -9
BITMAP
000000
000000
000000
000000
000000
000000
000000
000000
0018c0
0018c0
0018c0
0018c0
0018c0
0018c0
001ce0
001ad0
000c60
000000
000000
000000
000000
000000
000000
000000
000000
000000
ENDCHAR
STARTCHAR acircumflex
ENCODING 226
SWIDTH 480 0
DWIDTH 10 0
BBX 21 26 -10 -9
BITMAP
000000
000000
0007c0
000e00
000300
000180
000180
000180
000180
000180
000180
000180
000180
000180
0001c0
0001a0
0000c0
000000
000000
000000
000000
000000
000000
000000
000000
000000
ENDCHAR
STARTCHAR atilde
ENCODING 227
SWIDTH 480 0
DWIDTH 10 0
BBX 21 26 -10 -9
BITMAP
000000
000000
000700
000d80
000d80
000b80
000580
000180
000180
000180
000180
000180
000180
000180
0001c0
0001a0
0000c0
000000
000000
000000
000000
000000
000000
000000
000000
000000
ENDCHAR
STARTCHAR adiaeresis
ENCODING 228
SWIDTH 480 0
DWIDTH 10 0
BBX 21 26 -10 -9
BITMAP
000000
000000
000980
000f80
000580
000180
000180
000180
000180
000180
000180
000180
000180
000180
0001c0
0001a0
0000c0
000000
000000
000000
000000
000000
000000
000000
000000
000000
ENDCHAR
STARTCHAR aring
ENCODING 229
SWIDTH 480 0
DWIDTH 10 0
BBX 21 26 -10 -9
BITMAP
000000
000000
000000
000000
000000
000000
000000
000000
0007c0
000c60
000060
000060
000060
000060
000060
000060
000060
000060
000060
000060
000000
000000
000000
000000
000000
000000
ENDCHAR
STARTCHAR ae
ENCODING 230
SWIDTH 432 0
DWIDTH 9 0
BBX 21 26 -10 -9
BITMAP
000000
000000
000000
000000
000000
000000
000000
000000
0006c0
000d60
000c60
000e60
000d60
000660
000060
000060
000060
000060
000060
000060
000000
000000
000000
000000
000000
000000
ENDCHAR
STARTCHAR ccedilla
ENCODING 231
SWIDTH 480 0
DWIDTH 10 0
BBX 21 26 -10 -9
BITMAP
000000
000000
0000c0
000f80
001800
001980
001f80
000000
000000
000000
000000
000000
000000
000000
000000
000000
000000
000000
000000
000000
000000
000000
000000
000000
000000
000000
ENDCHAR
STARTCHAR egrave
ENCODING 232
SWIDTH 480 0
DWIDTH 10 0
BBX 21 26 -10 -9
BITMAP
000000
000060
000060
000000
000000
000000
000000
000000
000000
000000
000000
000000
000000
000000
000000
000000
000000
000000
000000
000000
000000
000000
000000
000000
000000
000000
ENDCHAR
STARTCHAR eacute
ENCODING 233
SWIDTH 480 0
DWIDTH 10 0
BBX 21 26 -10 -9
BITMAP
000000
0003b0
0001e0
0001c0
000000
000000
000000
000000
000000
000000
000000
000000
000000
000000
000000
000000
000000
000000
000000
000000
000000
000000
000000
000000
000000
000000
ENDCHAR
STARTCHAR ecircumflex
ENCODING 234
SWIDTH 480 0
DWIDTH 10 0
BBX 21 26 -10 -9
BITMAP
000000
0007d0
0006f0
0006e0
000000
000000
000000
000000
000000
000000
000000
000000
000000
000000
000000
000000
000000
000000
000000
000000
000000
000000
000000
000000
000000
000000
ENDCHAR
STARTCHAR ediaeresis
ENCODING 235
SWIDTH 480 0
DWIDTH 10 0
BBX 21 26 -10 -9
BITMAP
000000
000060
0000f0
000060
000000
000000
000000
000000
000000
000000
000000
000000
000000
000000
000000
000000
000000
000000
000000
000000
000000
000000
000000
000000
000000
000000
ENDCHAR
STARTCHAR igrave
ENCODING 236
SWIDTH 480 0
DWIDTH 10 0
BBX 21 26 -10 -9
BITMAP
000000
000030
000060
000070
000000
000000
000000
000000
000000
000000
000000
000000
000000
000000
000000
000000
000000
000000
000000
000000
000000
000000
000000
000000
000000
000000
ENDCHAR
STARTCHAR iacute
ENCODING 237
SWIDTH 480 0
DWIDTH 10 0
BBX 21 26 -10 -9
BITMAP
000000
000000
000000
000000
0000e0
000120
0001c0
000000
000000
000000
000000
000000
000000
000000
000000
000000
000000
000000
000000
000000
000000
000000
000000
000000
000000
000000
ENDCHAR
STARTCHAR icircumflex
ENCODING 238
SWIDTH 480 0
DWIDTH 10 0
BBX 21 26 -10 -9
BITMAP
000000
000000
0003c0
000600
000380
000600
0003c0
000000
000000
000000
000000
000000
000000
000000
000000
000000
000000
000000
000000
000000
000000
000000
000000
000000
000000
000000
ENDCHAR
STARTCHAR idiaeresis
ENCODING 239
SWIDTH 480 0
DWIDTH 10 0
BBX 21 26 -10 -9
BITMAP
000000
000000
000000
000000
000000
000000
000000
000000
000000
000fc0
001860
001860
001b60
001b60
001860
001860
000fc0
000000
000000
000000
000000
000000
000000
000000
000000
000000
ENDCHAR
STARTCHAR eth
ENCODING 240
SWIDTH 480 0
DWIDTH 10 0
BBX 21 26 -10 -9
BITMAP
000000
000000
000000
000000
000000
000000
000000
000000
000000
000000
000780
000cc0
001860
001860
001860
000cc0
000780
000000
000000
000000
000000
000000
000000
000000
000000
000000
ENDCHAR
STARTCHAR ntilde
ENCODING 241
SWIDTH 480 0
DWIDTH 10 0
BBX 21 26 -10 -9
BITMAP
000000
000000
000000
000000
000000
000000
000000
000000
000000
000000
000780
000cc0
001860
001e60
001d60
000e60
0000c0
000180
000000
000000
000000
000000
000000
000000
000000
000000
ENDCHAR
STARTCHAR ograve
ENCODING 242
SWIDTH 480 0
DWIDTH 10 0
BBX 21 26 -10 -9
BITMAP
000000
000000
000000
000000
000000
000000
003000
001800
001800
001800
001920
001bf0
001b30
001ab0
0019b0
001830
000ff0
000000
000000
000000
000000
000000
000000
000000
000000
000000
ENDCHAR
STARTCHAR oacute
ENCODING 243
SWIDTH 480 0
DWIDTH 10 0
BBX 21 26 -10 -9
BITMAP
000000
000000
000000
000000
000000
000000
000000
000000
000000
000000
000ee0
001bb0
001930
001830
001c30
001a30
000c30
000000
000000
000000
000000
000000
000000
000000
000000
000000
ENDCHAR
STARTCHAR ocircumflex
ENCODING 244
SWIDTH 480 0
DWIDTH 10 0
BBX 21 26 -10 -9
BITMAP
000000
000000
000000
000000
000000
000000
000000
000030
000030
000070
000fe0
001800
001980
001ac0
001b80
0019c0
000f70
000000
000000
000000
000000
000000
000000
000000
000000
000000
ENDCHAR
STARTCHAR otilde
ENCODING 245
SWIDTH 480 0
DWIDTH 10 0
BBX 21 26 -10 -9
BITMAP
000000
000000
000000
000000
000000
000000
000000
000030
0001b0
000370
000fe0
001800
001980
001ac0
001b80
0019c0
000f70
000000
000000
000000
000000
000000
000000
000000
000000
000000
ENDCHAR
STARTCHAR odiaeresis
ENCODING 246
SWIDTH 480 0
DWIDTH 10 0
BBX 21 26 -10 -9
BITMAP
000000
000000
000000
000000
000000
000000
000000
003000
001800
001800
001fc0
001860
000060
000c60
001a60
001c60
000fc0
000000
000000
000000
000000
000000
000000
000000
000000
000000
ENDCHAR
STARTCHAR division
ENCODING 247
SWIDTH 480 0
DWIDTH 10 0
BBX 21 26 -10 -9
BITMAP
000000
000000
000000
000000
000000
000000
000000
000000
000020
000010
000cd0
001ff0
001b70
001870
001c60
001a60
000c40
000000
000000
000000
000000
000000
000000
000000
000000
000000
ENDCHAR
STARTCHAR oslash
ENCODING 248
SWIDTH 480 0
DWIDTH 10 0
BBX 21 26 -10 -9
BITMAP
000000
000000
000000
000000
000000
000000
000000
000030
000030
000030
000fe0
001800
001800
001860
001ad0
001e70
000de0
000000
000000
000000
000000
000000
000000
000000
000000
000000
ENDCHAR
STARTCHAR ugrave
ENCODING 249
SWIDTH 480 0
DWIDTH 10 0
BBX 21 26 -10 -9
BITMAP
000000
000000
000000
000000
000000
000000
000000
000030
000030
000070
000fe0
001980
0018c0
001860
001e60
000d30
000610
000000
000000
000000
000000
000000
000000
000000
000000
000000
ENDCHAR
STARTCHAR uacute
ENCODING 250
SWIDTH 480 0
DWIDTH 10 0
BBX 21 26 -10 -9
BITMAP
000000
000000
000000
000000
000000
000000
000000
000000
000db0
001bb0
001db0
0019b0
000fb0
0001b0
0001b0
0001b0
000360
000000
000000
000000
000000
000000
000000
000000
000000
000000
ENDCHAR
STARTCHAR ucircumflex
ENCODING 251
SWIDTH 480 0
DWIDTH 10 0
BBX 21 26 -10 -9
BITMAP
000000
000000
000000
000000
000000
000000
000000
000000
000000
000000
000c00
001a00
001d40
0019f0
001ea0
000c00
000000
000000
000000
000000
000000
000000
000000
000000
000000
000000
ENDCHAR
STARTCHAR udiaeresis
ENCODING 252
SWIDTH 1000 0
DWIDTH 21 0
BBX 21 26 -10 -9
BITMAP
000000
000000
000000
000000
000000
000000
000000
000000
000000
000000
000000
000000
000000
000000
000000
000000
000000
000000
000000
000000
000000
000000
030000
058000
038000
018000
ENDCHAR
STARTCHAR yacute
ENCODING 253
SWIDTH 1000 0
DWIDTH 21 0
BBX 21 26 -10 -9
BITMAP
000000
000000
000000
000000
000000
000000
000000
000000
000000
000000
000000
000000
000000
000000
000000
000000
000000
000000
000000
000000
000000
000000
108000
2d8000
1d8000
0f8000
ENDCHAR
STARTCHAR thorn
ENCODING 254
SWIDTH 1000 0
DWIDTH 21 0
BBX 21 26 -10 -9
BITMAP
000000
000000
000000
000000
000000
000000
000000
000000
000000
000000
000000
000000
000000
000000
000000
000000
000000
000000
000000
000000
000000
000000
000000
060000
060000
000000
ENDCHAR
ENDFONT
